<svg xmlns="http://www.w3.org/2000/svg" viewBox="0 0 244.58 256.21"><defs><style>.cls-1{fill:#fff;}</style></defs><g id="Capa_2" data-name="Capa 2"><g id="Capa_1-2" data-name="Capa 1"><path class="cls-1" d="M0,64.49C.21,38,18.06,10.7,40.69,2.56c10.85-3.91,21.65-2.9,32.41.08,7.36,2,14.72,4.21,21.9,6.81,17.79,6.44,35.41,6.26,53.28.1A213.11,213.11,0,0,1,178,1.24c20.6-3.87,36.42,4.94,49.76,20.07,16.72,19,20,40.7,14.07,64.43-2,8.05-4,16.22-7.23,23.82-8.07,18.95-9.64,38.79-10.41,59-.83,22-3.81,43.79-12.91,64.2a55.32,55.32,0,0,1-6.8,11.58c-11.58,14.74-31.89,15-44.08.68-8-9.44-11-21.12-14-32.71-2.67-10.12-5.16-20.29-8-30.36a36.89,36.89,0,0,0-4.06-9.07c-5.86-9.62-17.58-10.3-23.73-.83a87.51,87.51,0,0,0-9.12,19.81c-4.18,12.43-7.25,25.24-11.45,37.66a60.32,60.32,0,0,1-8.27,15.82c-10.25,14.17-28.07,14.43-39.16.85-8.09-9.9-12.08-21.76-15.1-33.91-4.54-18.32-7.26-37-7.07-55.85.14-14.81-3.71-28.5-8.4-42.3C7.65,101.3,4.4,88.05,1,74.9.07,71.58.29,68,0,64.49Zm223.53,6c-.06-23.2-9.15-36.17-23.7-45.41A23,23,0,0,0,185.18,22a211.84,211.84,0,0,0-30.34,7.64c-18.14,5.73-36.35,8.33-55,3.13-11.52-3.21-22.87-7-34.39-10.25-7.55-2.1-15.38-2.74-22.16,2.11C30.18,34,21.82,46.37,21.34,63c-.43,14.64,5.05,28,9.39,41.6,3.77,11.84,7.87,23.75,9.78,35.95,2.13,13.58,1.51,27.58,2.92,41.31,1.6,15.58,4.43,31,11.69,45.14,1.56,3,4.61,5.27,7,7.87,2.19-2.8,5.27-5.28,6.4-8.45,3.67-10.32,6.68-20.87,9.83-31.37,4-13.39,7.82-26.87,17-37.94,15.12-18.21,42.79-17.12,55.46,2.87,4.72,7.44,7.72,16.16,10.41,24.65,3.6,11.39,5.93,23.17,9.26,34.66a37.48,37.48,0,0,0,5.68,11.53c3.6,5,8.83,4.69,12.26-.36a46.46,46.46,0,0,0,5-9.71c7.28-19.25,9.08-39.45,10.16-59.77.45-8.64-.1-17.51,1.71-25.87,2.6-12,7.12-23.49,10.49-35.3C219,88.51,221.8,77.1,223.53,70.52Z"/></g></g></svg>