<svg width="102" height="30" viewBox="0 0 102 30" fill="none" xmlns="http://www.w3.org/2000/svg">
<g clip-path="url(#clip0_205_2957)">
<path fill-rule="evenodd" clip-rule="evenodd" d="M101.459 21.939C101.459 19.8468 99.7618 18.1469 97.6673 18.1469C81.7078 18.1469 20.0879 18.1469 4.12807 18.1469C2.03373 18.1469 0.335938 19.8468 0.335938 21.939C0.335938 23.2379 0.335938 24.6894 0.335938 25.9839C0.335938 28.0805 2.03373 29.776 4.12807 29.776C20.0879 29.776 81.7078 29.776 97.6673 29.776C99.7618 29.776 101.459 28.0805 101.459 25.9839C101.459 24.6894 101.459 23.2379 101.459 21.939Z" fill="#3A3A8B"/>
<path d="M13.1053 26.1416C12.7932 26.2932 12.3116 26.3913 11.83 26.3913C10.3763 26.3913 9.529 25.4549 9.529 23.9744C9.529 22.3958 10.4654 21.495 11.8746 21.495C12.374 21.495 12.7932 21.6021 13.0786 21.7448L13.2748 21.1116C13.0697 21.0045 12.5881 20.844 11.8478 20.844C9.98385 20.844 8.7085 22.1104 8.7085 24.0012C8.7085 25.9811 9.97493 27.0513 11.6694 27.0513C12.4008 27.0513 12.9805 26.9086 13.2569 26.7659L13.1053 26.1416Z" fill="white"/>
<path d="M16.0132 26.9532H19.3666V26.3022H16.798V20.9421H16.0132V26.9532Z" fill="white"/>
<path d="M22.0059 20.9421V26.9531H22.7907V20.9421H22.0059ZM22.764 19.5775L21.9346 20.621H22.5678L23.7094 19.5775H22.764Z" fill="white"/>
<path d="M26.6615 26.9532V24.3847C26.6615 23.3858 26.6526 22.6634 26.608 21.9053L26.6347 21.8964C26.9291 22.5475 27.3304 23.2342 27.7496 23.9031L29.6581 26.9532H30.443V20.9421H29.7116V23.4572C29.7116 24.3936 29.7295 25.1249 29.8008 25.9276L29.7741 25.9365C29.4976 25.3211 29.1408 24.6879 28.7038 23.9834L26.7864 20.9421H25.9302V26.9532H26.6615Z" fill="white"/>
<path d="M34.3583 20.9421H33.5735V26.9532H34.3583V20.9421Z" fill="white"/>
<path d="M41.5377 26.1416C41.2256 26.2932 40.744 26.3913 40.2624 26.3913C38.8086 26.3913 37.9614 25.4549 37.9614 23.9744C37.9614 22.3958 38.8978 21.495 40.3069 21.495C40.8064 21.495 41.2256 21.6021 41.5109 21.7448L41.7072 21.1116C41.502 21.0045 41.0204 20.844 40.2802 20.844C38.4162 20.844 37.1409 22.1104 37.1409 24.0012C37.1409 25.9811 38.4073 27.0513 40.1018 27.0513C40.8331 27.0513 41.4128 26.9086 41.6893 26.7659L41.5377 26.1416Z" fill="white"/>
<path d="M47.5932 25.0625L48.2353 26.9532H49.0647L47.0135 20.9421H46.0859L44.0347 26.9532H44.8373L45.4616 25.0625H47.5932ZM45.6222 24.456L46.2108 22.7169C46.3357 22.3513 46.4248 21.9767 46.514 21.6289H46.5319C46.621 21.9767 46.7102 22.3334 46.844 22.7258L47.4415 24.456H45.6222Z" fill="white"/>
<path d="M55.4055 26.9354C55.7979 26.98 56.2528 27.0068 56.8146 27.0068C57.983 27.0068 58.9105 26.7035 59.4813 26.1417C60.0342 25.5887 60.3464 24.7861 60.3464 23.805C60.3464 22.8329 60.0342 22.1373 59.4902 21.6467C58.964 21.1651 58.1703 20.8976 57.0554 20.8976C56.4401 20.8976 55.8782 20.9511 55.4055 21.0314V26.9354ZM56.1814 21.5932C56.3866 21.5486 56.6898 21.513 57.0911 21.513C58.7321 21.513 59.5348 22.4137 59.5259 23.8318C59.5259 25.455 58.634 26.3825 56.9663 26.3825C56.663 26.3825 56.3776 26.3736 56.1814 26.3468V21.5932Z" fill="white"/>
<path d="M66.2332 23.4928H63.9054V21.5932H66.3759V20.9421H63.1206V26.9532H66.5096V26.3022H63.9054V24.135H66.2332V23.4928Z" fill="white"/>
<path d="M70.0321 26.9532V24.3847C70.0321 23.3858 70.0232 22.6634 69.9786 21.9053L70.0053 21.8964C70.2997 22.5475 70.701 23.2342 71.1202 23.9031L73.0287 26.9532H73.8136V20.9421H73.0822V23.4572C73.0822 24.3936 73.1001 25.1249 73.1714 25.9276L73.1447 25.9365C72.8682 25.3211 72.5114 24.6879 72.0744 23.9834L70.157 20.9421H69.3008V26.9532H70.0321Z" fill="white"/>
<path d="M78.0944 26.9532H78.8792V21.6021H80.7165V20.9421H76.2661V21.6021H78.0944V26.9532Z" fill="white"/>
<path d="M85.6039 25.0625L86.246 26.9532H87.0755L85.0242 20.9421H84.0967L82.0454 26.9532H82.8481L83.4724 25.0625H85.6039ZM83.6329 24.456L84.2215 22.7169C84.3464 22.3513 84.4356 21.9767 84.5248 21.6289H84.5426C84.6318 21.9767 84.721 22.3334 84.8547 22.7258L85.4523 24.456H83.6329Z" fill="white"/>
<path d="M89.7334 26.9532H93.0868V26.3022H90.5182V20.9421H89.7334V26.9532Z" fill="white"/>
<path d="M5.22067 15.3493C4.76298 15.3493 4.30846 15.2871 3.85731 15.1625C3.40616 15.038 2.9778 14.8447 2.57242 14.5826C1.86622 14.1237 1.31697 13.5307 0.924671 12.8033C0.532282 12.0758 0.336182 11.2795 0.336182 10.4145H3.65131C3.65131 10.8077 3.73632 11.1123 3.90636 11.3286C4.0764 11.5449 4.22681 11.6924 4.35751 11.771C4.59295 11.9283 4.848 12.0135 5.12258 12.0266C5.39725 12.0397 5.66529 11.9873 5.92688 11.8694C6.11 11.7907 6.25705 11.6924 6.36822 11.5744C6.4794 11.4564 6.56442 11.3418 6.62328 11.2303C6.68214 11.119 6.71811 11.0108 6.73119 10.906C6.74427 10.801 6.7508 10.7159 6.7508 10.6504C6.7508 10.5849 6.74427 10.4997 6.73119 10.3947C6.71811 10.2899 6.68214 10.1785 6.62328 10.0606C6.56442 9.94255 6.4794 9.82783 6.36822 9.71646C6.25705 9.60501 6.11 9.50346 5.92688 9.41171C5.783 9.34622 5.62932 9.28717 5.46592 9.23476C5.30242 9.18235 5.12912 9.1234 4.946 9.05781C4.61911 8.95299 4.27904 8.83499 3.92598 8.70391C3.57292 8.57284 3.21977 8.39589 2.86672 8.17307C2.40893 7.88476 2.02317 7.52432 1.70926 7.09176C1.39545 6.6592 1.16982 6.19384 1.03258 5.69579C0.895242 5.19773 0.849463 4.68324 0.895242 4.1524C0.94102 3.62155 1.08807 3.11368 1.33659 2.62871C1.57202 2.18307 1.86622 1.79638 2.21937 1.46873C2.57242 1.141 2.96481 0.882206 3.39635 0.692085C3.82788 0.502056 4.29212 0.387329 4.78914 0.34809C5.28607 0.308758 5.78955 0.354632 6.29956 0.485708C6.79528 0.603612 7.24475 0.790464 7.64779 1.04598C8.05083 1.3016 8.39865 1.60962 8.69117 1.97006C8.98368 2.3305 9.20791 2.73354 9.36393 3.17918C9.51995 3.62491 9.59796 4.09017 9.59796 4.57514H6.29956C6.29956 4.27366 6.20473 4.06392 6.01517 3.94601C5.82551 3.82802 5.65875 3.74935 5.51497 3.71002C5.48881 3.71002 5.42668 3.70021 5.32858 3.68059C5.23048 3.66088 5.11931 3.66088 4.99505 3.68059C4.87089 3.70021 4.74336 3.74608 4.61257 3.81821C4.48177 3.89033 4.37713 4.00497 4.29865 4.16229C4.19411 4.37194 4.17449 4.5915 4.23989 4.82095C4.30519 5.05031 4.43599 5.23053 4.63219 5.36161C4.8153 5.46643 5.01794 5.56144 5.24029 5.64665C5.46265 5.73185 5.69799 5.81379 5.9465 5.89245C6.16886 5.95794 6.3942 6.03007 6.62263 6.10873C6.85115 6.18731 7.08228 6.27905 7.31631 6.38397C8.17434 6.77719 8.8471 7.35391 9.33469 8.11412C9.82218 8.87432 10.0659 9.71974 10.0659 10.6504C10.0659 11.5679 9.82218 12.4068 9.33469 13.167C8.8471 13.9272 8.17434 14.5039 7.31631 14.8971C6.9783 15.0544 6.63281 15.1691 6.27985 15.2412C5.92679 15.3132 5.57373 15.3493 5.22067 15.3493ZM90.8665 6.99347V15.0741H87.5321V14.7202C87.1658 14.8512 86.7894 14.9463 86.4044 15.0052C86.0177 15.0643 85.6355 15.0937 85.2562 15.0937C84.3276 15.0937 83.4185 14.9167 82.5301 14.5628C81.6406 14.2089 80.8428 13.6781 80.1365 12.9703C79.4302 12.2625 78.9042 11.4662 78.5576 10.5815C78.211 9.69685 78.0372 8.78912 78.0372 7.85851C78.0372 6.92789 78.211 6.0169 78.5576 5.12561C78.9042 4.23433 79.4302 3.43479 80.1365 2.72699C80.8428 2.0192 81.6406 1.48835 82.5301 1.13446C83.4185 0.780558 84.3276 0.603608 85.2562 0.603608C86.1849 0.603608 87.0939 0.780558 87.9833 1.13446C88.8727 1.48835 89.6706 2.0192 90.376 2.72699L88.0226 5.08628C87.6433 4.70622 87.2116 4.42109 86.7277 4.23106C86.2437 4.04103 85.7533 3.94601 85.2562 3.94601C84.7592 3.94601 84.2687 4.04103 83.7848 4.23106C83.3018 4.42109 82.8692 4.70622 82.4908 5.08628C82.1115 5.46643 81.8238 5.89899 81.6276 6.38397C81.4314 6.86894 81.3333 7.36045 81.3333 7.85851C81.3333 8.35656 81.4314 8.84807 81.6276 9.33305C81.8238 9.81802 82.1115 10.2506 82.4908 10.6307C82.8309 10.9715 83.213 11.2369 83.6381 11.427C84.0632 11.617 84.5013 11.7284 84.9526 11.7612C85.4038 11.794 85.8513 11.7514 86.2961 11.6334C86.7408 11.5155 87.1528 11.3188 87.5321 11.0436V10.3161H84.648V6.99347H90.8665ZM101.46 3.96564H95.5359V6.14797H100.342V9.47066H95.5359V11.7514H101.46V15.0741H92.2202V0.662655L101.46 0.642943V3.96564ZM71.4855 11.3385C71.3155 11.3647 71.1455 11.3844 70.9755 11.3975C70.8055 11.4106 70.6289 11.4236 70.4459 11.4368V15.0741H67.1307V0.70199H70.4459C71.2697 0.715069 72.0413 0.865579 72.7606 1.15352C73.4799 1.44146 74.1109 1.82768 74.6533 2.312C75.1961 2.79632 75.6212 3.35921 75.9286 4.00048C76.236 4.64185 76.3901 5.329 76.3901 6.06202C76.3901 6.83428 76.2266 7.55095 75.8996 8.21193C75.5726 8.87292 75.1148 9.44563 74.5263 9.92995L77.7037 15.0741H73.8002L71.4855 11.3385ZM50.7508 0.407046V9.62799C50.7508 10.3882 50.6036 11.0993 50.3094 11.7612C50.0151 12.4231 49.6228 12.9998 49.1324 13.4913C48.6421 13.9829 48.0665 14.3695 47.4061 14.6513C46.7457 14.9332 46.0428 15.0741 45.2974 15.0741H45.2385C44.4931 15.061 43.7934 14.9135 43.1395 14.6317C42.4857 14.3499 41.8972 13.9468 41.3741 13.4226C40.8641 12.8983 40.4749 12.3051 40.2069 11.6432C39.9388 10.9814 39.8112 10.2768 39.8243 9.52971L43.1395 9.56904C43.1395 10.1588 43.3423 10.67 43.7477 11.1025C44.1792 11.5351 44.6893 11.7514 45.2778 11.7514C45.5654 11.7514 45.8401 11.699 46.1016 11.594C46.3632 11.4892 46.5921 11.3385 46.7882 11.1419C46.9844 10.9453 47.1413 10.7159 47.2591 10.4538C47.3767 10.1916 47.4355 9.90977 47.4355 9.60837V0.407046H50.7508ZM32.4878 0.642943H35.8029V15.0741H32.2131L27.5051 6.6592V15.0741H24.19V0.682277H27.7994L32.4878 9.07753V0.642943ZM19.7173 15.0741L19.1484 13.3242H14.617L14.0285 15.0741H10.5172L15.4213 0.642943H18.5599L23.2091 15.0741H19.7173ZM58.9211 0.623321C59.9136 0.623321 60.8474 0.813352 61.7224 1.1935C62.5975 1.57356 63.3616 2.08805 64.0145 2.7368C64.6675 3.38565 65.1833 4.14912 65.562 5.02733C65.9408 5.90553 66.1302 6.84269 66.1302 7.83889C66.1302 8.83499 65.9408 9.77215 65.562 10.6504C65.1833 11.5286 64.6675 12.292 64.0145 12.9409C63.3616 13.5896 62.5975 14.1041 61.7224 14.4843C60.8474 14.8643 59.9136 15.0544 58.9211 15.0544C57.9286 15.0544 56.9949 14.8643 56.1198 14.4843C55.2446 14.1041 54.4839 13.5896 53.8375 12.9409C53.191 12.292 52.6785 11.5286 52.2998 10.6504C51.921 9.77215 51.7316 8.83499 51.7316 7.83889C51.7316 6.84269 51.921 5.90553 52.2998 5.02733C52.6785 4.14912 53.191 3.38565 53.8375 2.7368C54.4839 2.08805 55.2446 1.57356 56.1198 1.1935C56.9949 0.813352 57.9286 0.623321 58.9211 0.623321ZM58.931 11.7317C59.4671 11.7317 59.9706 11.6301 60.4414 11.427C60.9121 11.2238 61.3242 10.9453 61.6772 10.5914C62.0304 10.2375 62.3082 9.82456 62.5109 9.35276C62.7137 8.88086 62.8149 8.37627 62.8149 7.83889C62.8149 7.30141 62.7137 6.79681 62.5109 6.32492C62.3082 5.85312 62.0304 5.44018 61.6772 5.08628C61.3242 4.73247 60.9121 4.45388 60.4414 4.25077C59.9706 4.04757 59.4671 3.94601 58.931 3.94601C58.3947 3.94601 57.8912 4.04757 57.4204 4.25077C56.9497 4.45388 56.5377 4.73247 56.1846 5.08628C55.8315 5.44018 55.5536 5.85312 55.3509 6.32492C55.1481 6.79681 55.0469 7.30141 55.0469 7.83889C55.0469 8.37627 55.1481 8.88086 55.3509 9.35276C55.5536 9.82456 55.8315 10.2375 56.1846 10.5914C56.5377 10.9453 56.9497 11.2238 57.4204 11.427C57.8912 11.6301 58.3947 11.7317 58.931 11.7317ZM15.7548 10.0015H18.0892L16.9514 6.50187L15.7548 10.0015ZM70.4459 8.0944C70.7989 8.08133 71.1357 8.01911 71.4561 7.90765C71.7765 7.79629 72.0577 7.64876 72.2996 7.46527C72.5415 7.28179 72.7312 7.06878 72.8685 6.82634C73.0058 6.5838 73.0745 6.32492 73.0745 6.04969C73.0745 5.77445 73.0058 5.51884 72.8685 5.28294C72.7312 5.04704 72.5415 4.8373 72.2996 4.65381C72.0577 4.47032 71.7765 4.3228 71.4561 4.21144C71.1357 4.09998 70.7989 4.03776 70.4459 4.02468V8.0944Z" fill="url(#paint0_radial_205_2957)"/>
</g>
<defs>
<radialGradient id="paint0_radial_205_2957" cx="0" cy="0" r="1" gradientUnits="userSpaceOnUse" gradientTransform="translate(10.9765 -13.8418) rotate(33.6016) scale(125.048 67.0157)">
<stop stop-color="#FF972D"/>
<stop offset="0.45" stop-color="#FF6915"/>
<stop offset="0.76" stop-color="#FF4E0E"/>
<stop offset="1" stop-color="#FF420B"/>
</radialGradient>
<clipPath id="clip0_205_2957">
<rect width="101.461" height="30" fill="white"/>
</clipPath>
</defs>
</svg>
