<svg width="34" height="34" viewBox="0 0 34 34" fill="none" xmlns="http://www.w3.org/2000/svg">
<rect width="34" height="34" rx="10" fill="#FF560B"/>
<path fill-rule="evenodd" clip-rule="evenodd" d="M24.9589 9.00809C22.8539 6.90066 20.0545 5.73955 17.0721 5.73828C10.9266 5.73828 5.9251 10.7397 5.92264 16.8868C5.92179 18.8519 6.43515 20.7701 7.41088 22.4609L5.8291 28.2383L11.7396 26.6879C13.3682 27.5762 15.2017 28.0444 17.0676 28.0449H17.0723C23.217 28.0449 28.2191 23.0431 28.2215 16.8957C28.2227 13.9165 27.064 11.1154 24.9589 9.00809ZM17.0721 26.162H17.0683C15.4055 26.1613 13.7747 25.7145 12.3517 24.8703L12.0135 24.6694L8.50605 25.5895L9.44223 22.1699L9.22183 21.8193C8.29417 20.3438 7.80432 18.6385 7.80513 16.8875C7.80706 11.7782 11.9643 7.62137 17.0758 7.62137C19.551 7.62218 21.8778 8.58731 23.6274 10.339C25.377 12.0906 26.3399 14.4189 26.3391 16.895C26.3369 22.0048 22.1799 26.162 17.0721 26.162ZM22.1552 19.2215C21.8767 19.082 20.507 18.4083 20.2516 18.3152C19.9964 18.2222 19.8104 18.1759 19.6249 18.4547C19.4391 18.7335 18.9053 19.3611 18.7427 19.5469C18.5801 19.7328 18.4178 19.7562 18.1392 19.6167C17.8605 19.4773 16.9629 19.183 15.8988 18.2339C15.0707 17.4952 14.5116 16.5829 14.349 16.3041C14.1867 16.0251 14.3476 15.8888 14.4712 15.7356C14.7728 15.3611 15.0748 14.9685 15.1676 14.7827C15.2606 14.5967 15.2141 14.434 15.1443 14.2946C15.0748 14.1552 14.5177 12.784 14.2855 12.226C14.0592 11.683 13.8298 11.7563 13.6587 11.7478C13.4963 11.7397 13.3105 11.7381 13.1247 11.7381C12.939 11.7381 12.6372 11.8077 12.3818 12.0867C12.1265 12.3657 11.4069 13.0395 11.4069 14.4108C11.4069 15.782 12.4051 17.1067 12.5444 17.2926C12.6836 17.4786 14.5089 20.2925 17.3034 21.499C17.968 21.7863 18.4869 21.9576 18.8916 22.0859C19.559 22.298 20.1661 22.2681 20.6463 22.1964C21.1815 22.1163 22.2943 21.5224 22.5267 20.8717C22.7588 20.2209 22.7588 19.6632 22.689 19.5469C22.6195 19.4307 22.4337 19.3611 22.1552 19.2215Z" fill="#FFFAF0"/>
</svg>
