<svg width="34" height="34" viewBox="0 0 34 34" fill="none" xmlns="http://www.w3.org/2000/svg">
<rect width="34" height="34" rx="10" fill="#FF560B"/>
<g clip-path="url(#clip0_234_797)">
<path d="M28.9766 12.056C28.9204 10.7809 28.7141 9.90417 28.4188 9.14449C28.114 8.33811 27.6452 7.61619 27.0309 7.016C26.4307 6.40651 25.704 5.9329 24.907 5.63292C24.1429 5.33755 23.2708 5.13132 21.9956 5.0751C20.7109 5.01409 20.303 5 17.0446 5C13.7861 5 13.3783 5.01409 12.0983 5.07031C10.8231 5.12653 9.94636 5.33295 9.18691 5.62818C8.38035 5.9329 7.65838 6.40177 7.05824 7.016C6.44875 7.61619 5.97532 8.34286 5.67516 9.13993C5.37974 9.90417 5.17351 10.7761 5.11729 12.0513C5.05633 13.336 5.04224 13.7439 5.04224 17.0023C5.04224 20.2608 5.05633 20.6687 5.11255 21.9486C5.16876 23.2238 5.37518 24.1005 5.67056 24.8602C5.97532 25.6666 6.44875 26.3885 7.05824 26.9886C7.65838 27.5982 8.38509 28.0717 9.18212 28.3718C9.94636 28.6671 10.8183 28.8734 12.0937 28.9296C13.3735 28.986 13.7815 28.9999 17.04 28.9999C20.2984 28.9999 20.7063 28.986 21.9863 28.9296C23.2615 28.8734 24.1382 28.6671 24.8977 28.3718C26.5106 27.7481 27.7858 26.473 28.4094 24.8602C28.7046 24.096 28.911 23.2238 28.9672 21.9486C29.0234 20.6687 29.0376 20.2608 29.0376 17.0023C29.0376 13.7439 29.0328 13.336 28.9766 12.056ZM26.8153 21.8549C26.7637 23.027 26.5668 23.6599 26.4027 24.0818C25.9994 25.1274 25.1696 25.9572 24.1241 26.3605C23.7021 26.5246 23.0646 26.7215 21.8971 26.7729C20.6312 26.8293 20.2516 26.8432 17.0493 26.8432C13.8471 26.8432 13.4627 26.8293 12.2014 26.7729C11.0293 26.7215 10.3963 26.5246 9.9744 26.3605C9.4541 26.1682 8.98049 25.8635 8.59607 25.465C8.19756 25.0757 7.89284 24.6069 7.70051 24.0866C7.5364 23.6647 7.33952 23.027 7.28809 21.8596C7.23168 20.5938 7.21774 20.2139 7.21774 17.0117C7.21774 13.8095 7.23168 13.425 7.28809 12.1639C7.33952 10.9918 7.5364 10.3589 7.70051 9.93695C7.89284 9.41647 8.19756 8.94304 8.60086 8.55843C8.98984 8.15992 9.45866 7.85515 9.97914 7.66306C10.4011 7.49896 11.0388 7.30207 12.2062 7.25046C13.472 7.19419 13.8519 7.1801 17.0539 7.1801C20.2609 7.1801 20.6405 7.19419 21.9018 7.25046C23.0739 7.30207 23.7069 7.49896 24.1288 7.66306C24.6492 7.85515 25.1227 8.15992 25.5071 8.55843C25.9057 8.9476 26.2104 9.41647 26.4027 9.93695C26.5668 10.3589 26.7637 10.9964 26.8153 12.1639C26.8716 13.4298 26.8857 13.8095 26.8857 17.0117C26.8857 20.2139 26.8716 20.589 26.8153 21.8549Z" fill="#FFFAF0"/>
<path d="M17.0444 10.8371C13.6407 10.8371 10.8792 13.5985 10.8792 17.0024C10.8792 20.4062 13.6407 23.1676 17.0444 23.1676C20.4482 23.1676 23.2097 20.4062 23.2097 17.0024C23.2097 13.5985 20.4482 10.8371 17.0444 10.8371ZM17.0444 21.0016C14.8363 21.0016 13.0452 19.2107 13.0452 17.0024C13.0452 14.794 14.8363 13.0031 17.0444 13.0031C19.2527 13.0031 21.0436 14.794 21.0436 17.0024C21.0436 19.2107 19.2527 21.0016 17.0444 21.0016Z" fill="#FFFAF0"/>
<path d="M24.893 10.5933C24.893 11.3881 24.2485 12.0326 23.4535 12.0326C22.6586 12.0326 22.0142 11.3881 22.0142 10.5933C22.0142 9.79828 22.6586 9.15399 23.4535 9.15399C24.2485 9.15399 24.893 9.79828 24.893 10.5933Z" fill="#FFFAF0"/>
</g>
<defs>
<clipPath id="clip0_234_797">
<rect width="24" height="24" fill="white" transform="translate(5 5)"/>
</clipPath>
</defs>
</svg>
